<svg width="64" height="65" viewBox="0 0 64 65" fill="none" xmlns="http://www.w3.org/2000/svg">
<mask id="mask0_5038_3531" style="mask-type:luminance" maskUnits="userSpaceOnUse" x="0" y="10" width="44" height="45">
<path d="M44 10.6602H0V54.5743H44V10.6602Z" fill="white"/>
</mask>
<g mask="url(#mask0_5038_3531)">
<path d="M43.9945 15.4624V43.5949H29.1846C28.0227 39.3794 25.3025 36.9869 21.0572 36.328C24.2598 32.203 24.9542 27.756 22.1733 23.2678C19.1792 18.4347 14.6245 17.1387 9.17374 18.5229C9.17374 17.6647 9.14853 16.795 9.17947 15.9276C9.23905 14.2077 10.0034 12.8419 11.3463 11.7797C12.1289 11.1609 13.0456 10.863 14.0023 10.6602C22.3956 10.6602 30.7888 10.6602 39.182 10.6602C39.2611 10.6877 39.3378 10.7232 39.4192 10.7404C41.6559 11.1953 43.1031 12.5245 43.7951 14.6844C43.8765 14.9387 43.9292 15.2034 43.9945 15.4635V15.4624ZM40.2889 39.9042V36.3211H31.2001V39.9042H40.2889Z" fill="#64ACFF"/>
<path d="M0 44.7078C0.255521 44.018 0.418229 43.2744 0.784896 42.6499C1.82875 40.875 3.44094 39.948 5.50114 39.9354C10.3847 39.9068 15.2671 39.9079 20.1506 39.9331C23.1997 39.948 25.5968 42.2718 25.6575 45.3117C25.7171 48.3264 25.6724 51.3422 25.6712 54.358C25.6712 54.413 25.6563 54.4669 25.6415 54.5711H0C0 51.2837 0 47.9952 0 44.7078Z" fill="#64ACFF"/>
<path d="M12.8288 21.6367C16.8575 21.6332 20.1518 24.9046 20.1712 28.9287C20.1907 32.9541 16.8747 36.2781 12.8379 36.2804C8.79542 36.2827 5.49542 32.9804 5.5 28.9379C5.50458 24.9183 8.79542 21.6401 12.8288 21.6367Z" fill="#64ACFF"/>
</g>
</svg>
