<svg width="64" height="65" viewBox="0 0 64 65" fill="none" xmlns="http://www.w3.org/2000/svg">
<mask id="mask0_5038_3561" style="mask-type:luminance" maskUnits="userSpaceOnUse" x="0" y="9" width="47" height="48">
<path d="M47 9.16016H0V56.1565H47V9.16016Z" fill="white"/>
</mask>
<g mask="url(#mask0_5038_3561)">
<path d="M47.0012 53.3138C46.6358 54.1097 46.0042 54.3403 45.1519 54.3366C39.7682 54.3121 34.3833 54.3207 28.9984 54.3342C28.7494 54.3342 28.4575 54.4359 28.2564 54.5843C25.4297 56.6765 21.5863 56.6789 18.7522 54.5917C18.54 54.4359 18.231 54.3354 17.9673 54.3342C12.537 54.3194 7.10672 54.3231 1.67643 54.3231C0.50771 54.3231 0 53.8166 0 52.6504C0 44.5282 0 36.4061 0 28.2827C0 27.1079 0.502805 26.6002 1.66539 26.6002C2.01367 26.6002 2.36073 26.6002 2.75439 26.6002C2.75439 26.8221 2.75439 27.0012 2.75439 27.1802C2.75439 33.7731 2.75439 40.366 2.75439 46.9589C2.75439 49.6434 4.48968 51.3848 7.16681 51.386C10.5013 51.386 13.8357 51.397 17.1702 51.3811C18.6332 51.375 19.9699 51.7416 21.211 52.5216C22.7268 53.4745 24.272 53.4769 25.789 52.5228C27.0288 51.7429 28.3656 51.3737 29.8298 51.3799C33.1802 51.3958 36.5294 51.386 39.8798 51.3848C42.4932 51.3835 44.2444 49.6274 44.2456 47.0042C44.2468 40.3966 44.2456 33.7878 44.2456 27.1802V26.6161C45.3211 26.61 46.4396 26.3291 47 27.6095V53.3126L47.0012 53.3138Z" fill="#64ACFF"/>
<path d="M24.407 9.16139C25.2213 9.40053 26.0748 9.55259 26.8437 9.89352C32.0876 12.2175 33.4157 18.987 29.435 23.1112C28.6612 23.9132 28.2577 24.7754 28.2982 25.8926C28.3374 27 27.7819 27.5199 26.6782 27.5199C24.5369 27.5199 22.3957 27.5212 20.2545 27.5199C19.2121 27.5199 18.6394 26.9852 18.6811 25.9379C18.7277 24.7852 18.296 23.9108 17.5161 23.072C15.2731 20.6597 14.6231 17.8109 15.7097 14.7045C16.795 11.6031 19.076 9.80522 22.3209 9.24478C22.4068 9.23006 22.4877 9.18837 22.5711 9.16016C23.1831 9.16016 23.795 9.16016 24.407 9.16016V9.16139Z" fill="#64ACFF"/>
<path d="M9.54093 9.16139C10.4374 9.67768 11.3388 10.1854 12.2279 10.7115C12.7724 11.0341 13.0287 11.5712 12.922 12.1402C12.8141 12.7203 12.467 13.1434 11.8894 13.2268C11.5411 13.2771 11.1242 13.1974 10.8041 13.0404C10.0523 12.67 9.34349 12.2163 8.61381 11.8018C8.10855 11.516 7.79828 11.0991 7.813 10.5104C7.82771 9.90333 8.15147 9.48392 8.71192 9.24723C8.74871 9.23129 8.77446 9.18959 8.80635 9.16016C9.05162 9.16016 9.29566 9.16016 9.54093 9.16016V9.16139Z" fill="#64ACFF"/>
<path d="M38.1857 9.16016C38.2593 9.20676 38.3292 9.25949 38.4052 9.30119C39.3863 9.83343 39.4673 11.1027 38.5291 11.6988C37.7307 12.2052 36.9054 12.67 36.0727 13.1176C35.3786 13.4892 34.5741 13.2305 34.2185 12.5707C33.8579 11.9036 34.0774 11.1199 34.7654 10.7115C35.6545 10.1829 36.5559 9.67645 37.4524 9.16139C37.6976 9.16139 37.9417 9.16139 38.1869 9.16139L38.1857 9.16016Z" fill="#64ACFF"/>
<path d="M24.8828 49.8817V35.8277C25.3611 35.7872 25.8332 35.7811 26.2931 35.7038C28.129 35.3972 29.5393 33.8459 29.6546 31.9855C29.7048 31.1773 29.6693 30.3655 29.6938 29.5549C29.6987 29.3881 29.7527 29.1796 29.863 29.0656C30.7129 28.174 31.0992 27.1132 31.0575 25.8954C31.0452 25.5447 31.1433 25.2859 31.4046 25.0529C31.6314 24.8506 31.8546 24.6249 32.0104 24.3674C32.2728 23.9345 32.6236 23.8339 33.1104 23.8401C35.373 23.8658 37.6369 23.8499 39.8995 23.8523C40.9419 23.8523 41.4815 24.3907 41.4827 25.4331C41.4827 32.6355 41.4827 39.8378 41.4827 47.0414C41.4827 48.1084 40.9468 48.6369 39.8689 48.6369C36.9783 48.6369 34.0878 48.6639 31.1985 48.6283C29.0242 48.6014 26.8842 48.6823 24.8828 49.8817Z" fill="#64ACFF"/>
<path d="M22.0816 49.8324C20.8724 49.1923 19.6325 48.7864 18.3068 48.6784C17.9267 48.6478 17.5441 48.6343 17.1627 48.6343C13.8294 48.6306 10.495 48.6331 7.16171 48.6318C6.01752 48.6318 5.5 48.1205 5.5 46.9922C5.5 39.8205 5.5 32.6488 5.5 25.4771C5.5 24.3709 6.02243 23.8472 7.12492 23.8472C9.44886 23.8472 11.7741 23.8521 14.098 23.8399C14.4156 23.8386 14.6008 23.949 14.8277 24.1759C15.5758 24.9227 16.0381 25.7199 16.0111 26.8469C15.9927 27.644 16.4894 28.3369 17.018 28.9587C17.1688 29.1353 17.2718 29.4038 17.2828 29.6368C17.3209 30.369 17.2743 31.106 17.3147 31.8369C17.4435 34.1008 19.1886 35.7502 21.4561 35.7797C21.6536 35.7821 21.851 35.7797 22.0803 35.7797L22.0816 49.8324Z" fill="#64ACFF"/>
<path d="M26.8944 30.293C26.8944 30.8559 26.9446 31.4077 26.8809 31.9473C26.8073 32.5666 26.2358 33.0167 25.5797 33.0241C24.1878 33.0388 22.7959 33.04 21.404 33.0241C20.6767 33.0155 20.1286 32.4906 20.0672 31.7671C20.0341 31.3722 20.0513 30.9724 20.0513 30.5751C20.0513 30.4868 20.0734 30.3972 20.0881 30.2942H26.8944V30.293Z" fill="#64ACFF"/>
<path d="M8.35229 17.4256C8.80972 17.4256 9.26838 17.4158 9.72458 17.428C10.5069 17.4489 11.0993 18.0387 11.1066 18.7868C11.1152 19.5557 10.5155 20.1628 9.70741 20.1751C8.80727 20.1885 7.90712 20.1873 7.00698 20.1751C6.19881 20.164 5.5979 19.5594 5.60158 18.793C5.60648 18.0289 6.2123 17.4415 7.02292 17.4268C7.46564 17.4182 7.90712 17.4256 8.34984 17.4256H8.35229Z" fill="#64ACFF"/>
<path d="M38.6541 20.1767C38.1966 20.1767 37.738 20.1865 37.2818 20.1742C36.5006 20.1534 35.907 19.5635 35.8985 18.8154C35.8899 18.0502 36.4932 17.4382 37.2965 17.4272C38.1966 17.4149 39.0968 17.4149 39.9969 17.4272C40.8063 17.4382 41.4072 18.0404 41.4036 18.8081C41.3986 19.5758 40.7977 20.1595 39.9822 20.1767C39.5395 20.1853 39.098 20.1779 38.6553 20.1779L38.6541 20.1767Z" fill="#64ACFF"/>
</g>
</svg>
