<svg width="64" height="65" viewBox="0 0 64 65" fill="none" xmlns="http://www.w3.org/2000/svg">
<path d="M0 55.3088V46.5548C0 45.4265 0.382261 44.4711 1.14678 43.6887C1.9113 42.9059 2.83826 42.4995 3.92766 42.4696H11.1241C11.8275 42.4696 12.4957 42.6418 13.1288 42.9861C13.7614 43.3304 14.2769 43.8107 14.6753 44.427C15.8332 46.0191 17.2689 47.258 18.9823 48.1439C20.6958 49.0299 22.5312 49.4728 24.4886 49.4728C26.4698 49.4728 28.3208 49.0299 30.0416 48.1439C31.7629 47.258 33.1905 46.0191 34.3247 44.427C34.7706 43.8107 35.304 43.3304 35.9249 42.9861C36.5459 42.6418 37.1886 42.4696 37.8532 42.4696H45.0496C46.1627 42.4995 47.0994 42.9059 47.8596 43.6887C48.6199 44.4711 49 45.4265 49 46.5548V55.3088H33.8263V49.8183C32.4945 50.8361 31.0371 51.6166 29.4539 52.1597C27.8704 52.7028 26.2153 52.9744 24.4886 52.9744C22.8008 52.9744 21.163 52.7005 19.5753 52.1527C17.9875 51.6053 16.5201 50.8227 15.1731 49.8049V55.3088H0ZM6.48676 39.2376C4.72116 39.2376 3.20982 38.6091 1.95274 37.352C0.695656 36.0949 0.0671146 34.5836 0.0671146 32.818C0.0671146 31.0131 0.695656 29.492 1.95274 28.2548C3.20982 27.0172 4.72116 26.3984 6.48676 26.3984C8.29127 26.3984 9.81233 27.0172 11.05 28.2548C12.2876 29.492 12.9064 31.0131 12.9064 32.818C12.9064 34.5836 12.2876 36.0949 11.05 37.352C9.81233 38.6091 8.29127 39.2376 6.48676 39.2376ZM42.4905 39.2376C40.7249 39.2376 39.2135 38.6091 37.9565 37.352C36.6994 36.0949 36.0708 34.5836 36.0708 32.818C36.0708 31.0131 36.6994 29.492 37.9565 28.2548C39.2135 27.0172 40.7249 26.3984 42.4905 26.3984C44.295 26.3984 45.816 27.0172 47.0537 28.2548C48.2913 29.492 48.9101 31.0131 48.9101 32.818C48.9101 34.5836 48.2913 36.0949 47.0537 37.352C45.816 38.6091 44.295 39.2376 42.4905 39.2376Z" fill="#64ACFF"/>
<path d="M24.4876 45.6744C23.0838 45.6744 21.7541 45.3489 20.4986 44.698C17.5088 43.148 16.3267 41.1411 15.4766 39.9946C19.2944 37.743 18.3259 29.1324 16.3255 28.1036C16.4242 27.9103 17.2028 27.6644 17.5088 27.5811C19.9794 26.9092 22.3057 26.5733 24.4876 26.5733C26.6695 26.5733 28.9957 26.9092 31.4663 27.5811C31.8069 27.6738 32.6495 27.9474 33.2164 28.3512C31.4663 30.0813 30.5871 36.7694 33.8748 39.9946C33.0636 41.18 29.8089 44.0957 28.5459 44.7272C27.283 45.3586 25.9302 45.6744 24.4876 45.6744ZM24.4876 23.2065C22.722 23.2065 21.2106 22.5779 19.9535 21.3208C18.6964 20.0638 18.0679 18.5524 18.0679 16.7868C18.0679 14.982 18.6964 13.4609 19.9535 12.2237C21.2106 10.986 22.722 10.3672 24.4876 10.3672C26.2921 10.3672 27.8131 10.986 29.0507 12.2237C30.2884 13.4609 30.9072 14.982 30.9072 16.7868C30.9072 18.5524 30.2884 20.0638 29.0507 21.3208C27.8131 22.5779 26.2921 23.2065 24.4876 23.2065Z" fill="#64ACFF"/>
</svg>
