<svg width="64" height="65" viewBox="0 0 64 65" fill="none" xmlns="http://www.w3.org/2000/svg">
<g clip-path="url(#clip0_5038_3544)">
<mask id="mask0_5038_3544" style="mask-type:luminance" maskUnits="userSpaceOnUse" x="0" y="0" width="64" height="65">
<path d="M64 0.660156H0V64.6602H64V0.660156Z" fill="white"/>
</mask>
<g mask="url(#mask0_5038_3544)">
<mask id="mask1_5038_3544" style="mask-type:luminance" maskUnits="userSpaceOnUse" x="0" y="6" width="51" height="52">
<path d="M51 6.66016H0V57.6602H51V6.66016Z" fill="white"/>
</mask>
<g mask="url(#mask1_5038_3544)">
<path fill-rule="evenodd" clip-rule="evenodd" d="M8.39855 36.3867C11.071 40.2281 14.8273 43.2942 19.2721 45.0993L13.631 53.6915C12.6472 55.19 10.3313 54.6659 10.0885 52.8898L9.66625 49.8011C9.50836 48.6461 8.3744 47.8904 7.24762 48.1893L3.9436 49.0658C2.21191 49.5252 0.836702 47.5916 1.83891 46.1066L8.39855 36.3867Z" fill="#64ACFF"/>
<path fill-rule="evenodd" clip-rule="evenodd" d="M42.6691 35.9727C40.0691 39.8628 36.3711 42.9983 31.9609 44.886L37.7741 53.3759C38.7868 54.8549 41.0921 54.2859 41.3003 52.5055L41.6624 49.4091C41.7978 48.2512 42.9169 47.4737 44.0492 47.7506L47.3697 48.5627C49.11 48.9883 50.4473 47.0284 49.4164 45.5631L42.6691 35.9727Z" fill="#64ACFF"/>
<path fill-rule="evenodd" clip-rule="evenodd" d="M42.0974 26.2166C42.0974 35.4231 34.5951 42.9254 25.3885 42.9254C16.182 42.9254 8.67969 35.4231 8.67969 26.2166C8.67969 17.01 16.182 9.50781 25.3885 9.50781C34.5951 9.50781 42.0973 17.01 42.0974 26.2166ZM27.3659 17.4668C26.7445 15.5544 24.039 15.5544 23.4176 17.4668L22.529 20.2016C22.2512 21.0569 21.4542 21.6359 20.5549 21.6359H17.6793C15.6685 21.6359 14.8325 24.209 16.4592 25.3909L18.7857 27.0812C19.5132 27.6097 19.8176 28.5466 19.5397 29.4019L18.6511 32.1367C18.0297 34.0491 20.2185 35.6393 21.8453 34.4574L24.1717 32.7672C24.8992 32.2386 25.8843 32.2386 26.6118 32.7672L28.9382 34.4574C30.565 35.6393 32.7538 34.0491 32.1324 32.1367L31.2438 29.4019C30.9659 28.5466 31.2703 27.6097 31.9979 27.0812L34.3243 25.3909C35.951 24.209 35.115 21.6359 33.1042 21.6359H30.2286C29.3293 21.6359 28.5324 21.0569 28.2545 20.2016L27.3659 17.4668Z" fill="#64ACFF"/>
</g>
</g>
</g>
<defs>
<clipPath id="clip0_5038_3544">
<rect width="64" height="64" fill="white" transform="translate(0 0.660156)"/>
</clipPath>
</defs>
</svg>
